<?xml version="1.0" encoding="utf-8"?>
<!-- Generator: Adobe Illustrator 22.1.0, SVG Export Plug-In . SVG Version: 6.00 Build 0)  -->
<svg version="1.1" id="Layer_1" xmlns="http://www.w3.org/2000/svg" xmlns:xlink="http://www.w3.org/1999/xlink" x="0px" y="0px"
	 viewBox="0 0 375 287" style="enable-background:new 0 0 375 287;" xml:space="preserve">
<style type="text/css">
	.st0{filter:url(#Adobe_OpacityMaskFilter);}
	.st1{fill:#FFFFFF;}
	.st2{mask:url(#mask-2_1_);fill:#BACFF2;}
	.st3{filter:url(#Adobe_OpacityMaskFilter_1_);}
	.st4{mask:url(#mask-2_2_);fill:url(#Shape_1_);}
</style>
<g id="FINAL-DELIVERABLES">
	<g id="Background-Mobile">
		<g id="Mask">
		</g>
		<defs>
			<filter id="Adobe_OpacityMaskFilter" filterUnits="userSpaceOnUse" x="39.1" y="-93" width="723.9" height="379.9">
				<feColorMatrix  type="matrix" values="1 0 0 0 0  0 1 0 0 0  0 0 1 0 0  0 0 0 1 0"/>
			</filter>
		</defs>
		<mask maskUnits="userSpaceOnUse" x="39.1" y="-93" width="723.9" height="379.9" id="mask-2_1_">
			<g class="st0">
				<rect id="path-1_1_" class="st1" width="375" height="375"/>
			</g>
		</mask>
		<path id="Shape-Copy" class="st2" d="M760.9-25C745.4-71.6,745.4-109,159.4-86l-19.4,14.4C63.4,58.1,30.4,139.4,41,172
			c5,15.4,82.5,69.9,92,76c39.9,25.7,108,38.6,204.2,38.6c0,0,77.5,5.7,156.9-34.7c2.5-1.3,4.9-2.6,7.3-3.9
			c11.2-6.2,21.3-13.2,30.3-20.7c24.2-20.4,39.5-44.7,44.3-70.2c3.8-20,13.5-45.4,37.2-66.5c0.8-0.7,1.7-1.4,2.5-2.1
			C632,74.7,654.5,63,685.6,56.2c29.4-6.4,48.2-16.8,59.8-29.1C760.6,11.2,766.5-8.2,760.9-25z"/>
		<defs>
			<filter id="Adobe_OpacityMaskFilter_1_" filterUnits="userSpaceOnUse" x="-66" y="-101.2" width="547" height="318.2">
				<feColorMatrix  type="matrix" values="1 0 0 0 0  0 1 0 0 0  0 0 1 0 0  0 0 0 1 0"/>
			</filter>
		</defs>
		<mask maskUnits="userSpaceOnUse" x="-66" y="-101.2" width="547" height="318.2" id="mask-2_2_">
			<g class="st3">
				<rect id="path-1_2_" class="st1" width="375" height="375"/>
			</g>
		</mask>
		
			<linearGradient id="Shape_1_" gradientUnits="userSpaceOnUse" x1="-495.0162" y1="528.2384" x2="-495.827" y2="528.274" gradientTransform="matrix(-547 0 0 318.2127 -270779 -168039.2656)">
			<stop  offset="0" style="stop-color:#75A5F4"/>
			<stop  offset="1" style="stop-color:#3078EF"/>
		</linearGradient>
		<path id="Shape" class="st4" d="M479.3-44.2c-13-39.1-13-70.4-503.9-51.1l-16.3,12.1c-33.4,157-33.4,246.2,0,267.8
			s88.5,32.3,165.2,32.3c0,0,64.9,4.8,131.4-29.1c2.1-1.1,4.1-2.1,6.1-3.3c9.4-5.2,17.9-11,25.4-17.3c20.3-17.1,33.1-37.4,37.1-58.8
			c3.2-16.8,11.3-38.1,31.1-55.7c0.7-0.6,1.4-1.2,2.1-1.8c13.7-11.5,32.5-21.3,58.6-27c24.6-5.4,40.4-14.1,50.1-24.3
			C479-13.9,484-30.1,479.3-44.2z"/>
	</g>
</g>
</svg>
