
<svg width="1440px" height="446px" viewBox="0 0 1440 446" version="1.1" xmlns="http://www.w3.org/2000/svg" xmlns:xlink="http://www.w3.org/1999/xlink">
    <defs>
        <rect id="path-1" x="0" y="0" width="1440" height="563"></rect>
        <linearGradient x1="8.26146933%" y1="37.325443%" x2="89.3383692%" y2="40.8857892%" id="linearGradient-3">
            <stop stop-color="#75A5F4" offset="0%"></stop>
            <stop stop-color="#3078EF" offset="100%"></stop>
        </linearGradient>
    </defs>
    <g id="FINAL-DELIVERABLES" stroke="none" stroke-width="1" fill="none" fill-rule="evenodd">
        <g id="Background-Desktop" transform="translate(0.000000, -0.000000)">
            <mask id="mask-2" fill="white">
                <use xlink:href="#path-1"></use>
            </mask>
            <g id="Mask"></g>
            <g id="Group-4" mask="url(#mask-2)" fill-rule="nonzero">
                <g transform="translate(-12.000000, -519.000000)">
                    <path d="M1524.22936,527.042795 C1531.73032,549.792227 1523.74069,575.935676 1503.41535,597.573698 C1487.9767,614.090326 1462.80608,628.188967 1423.43091,636.88618 C1381.81118,646.068068 1351.65447,661.916923 1329.83828,680.533807 C1328.73394,681.499565 1327.6296,682.468914 1326.52526,683.441853 C1294.89427,711.946096 1281.89897,746.347211 1276.77208,773.413586 C1270.34157,807.950499 1249.85245,840.745978 1217.41944,868.415163 C1205.39535,878.625032 1191.79642,888.008346 1176.83502,896.418575 C1173.63796,898.220846 1170.38293,899.97465 1167.06991,901.679986 C1060.76359,956.362033 957.066259,948.623398 957.066259,948.623398 C828.288452,948.623398 737.17551,931.221791 683.727432,896.418575 C670.966108,888.10892 567.250374,814.341753 560.582867,793.563085 C546.410919,749.397524 590.55908,639.515376 693.027349,463.916641 L719.039974,444.435159 C1503.41535,413.314589 1503.41535,463.916641 1524.22936,527.042795 Z" id="Shape-Copy" fill="#BACFF2"></path>
                    <path d="M1635.79826,172.804081 C1649.88093,215.514589 1634.88081,264.597135 1596.72104,305.221047 C1567.73578,336.229891 1520.47924,362.69913 1446.5544,379.027556 C1368.4155,396.265926 1311.79785,426.021071 1270.83907,460.973003 C1268.76573,462.786149 1266.69239,464.606036 1264.61906,466.432663 C1205.23349,519.947437 1180.8355,584.533188 1171.21003,635.348464 C1159.13707,700.189167 1120.66982,761.760445 1059.77852,813.707455 C1037.2039,832.87579 1011.67262,850.492323 983.583373,866.281955 C977.581062,869.665596 971.4699,872.958243 965.249888,876.159895 C765.66526,978.821717 570.97889,964.292956 570.97889,964.292956 C340.845297,964.292956 175.6055,931.622622 75.2595001,866.281955 C-25.0865,800.941288 -25.0865,530.276978 75.2595001,54.2890252 L124.096858,17.7138682 C1596.72104,-40.7128821 1596.72104,54.2890252 1635.79826,172.804081 Z" id="Shape" fill="url(#linearGradient-3)"></path>
                </g>
            </g>
        </g>
    </g>
</svg>